<mxfile host="app.diagrams.net" agent="Mozilla/5.0 (Windows NT 10.0; Win64; x64) AppleWebKit/537.36 (KHTML, like Gecko) Chrome/129.0.0.0 Safari/537.36" version="24.7.17">
  <diagram name="Page-1" id="5f0bae14-7c28-e335-631c-24af17079c00">
    <mxGraphModel dx="1050" dy="591" grid="1" gridSize="10" guides="1" tooltips="1" connect="1" arrows="1" fold="1" page="1" pageScale="1" pageWidth="1100" pageHeight="850" background="none" math="0" shadow="0">
      <root>
        <mxCell id="0" />
        <mxCell id="1" parent="0" />
        <mxCell id="39150e848f15840c-1" value="Interfaces" style="verticalAlign=top;align=left;spacingTop=8;spacingLeft=2;spacingRight=12;shape=cube;size=10;direction=south;fontStyle=4;html=1;rounded=0;shadow=0;comic=0;labelBackgroundColor=none;strokeWidth=1;fontFamily=Verdana;fontSize=12" parent="1" vertex="1">
          <mxGeometry x="120" y="70" width="330" height="220" as="geometry" />
        </mxCell>
        <mxCell id="39150e848f15840c-2" value="Controladores" style="verticalAlign=top;align=left;spacingTop=8;spacingLeft=2;spacingRight=12;shape=cube;size=10;direction=south;fontStyle=4;html=1;rounded=0;shadow=0;comic=0;labelBackgroundColor=none;strokeWidth=1;fontFamily=Verdana;fontSize=12" parent="1" vertex="1">
          <mxGeometry x="530" y="70" width="330" height="220" as="geometry" />
        </mxCell>
        <mxCell id="39150e848f15840c-3" value="Modelos" style="verticalAlign=top;align=left;spacingTop=8;spacingLeft=2;spacingRight=12;shape=cube;size=10;direction=south;fontStyle=4;html=1;rounded=0;shadow=0;comic=0;labelBackgroundColor=none;strokeWidth=1;fontFamily=Verdana;fontSize=12" parent="1" vertex="1">
          <mxGeometry x="370" y="410" width="260" height="160" as="geometry" />
        </mxCell>
        <mxCell id="39150e848f15840c-5" value="&lt;span style=&quot;font-family: Helvetica; font-style: italic; text-align: center;&quot;&gt;Interfaz&amp;nbsp;&lt;/span&gt;&lt;div&gt;&lt;span style=&quot;font-family: Helvetica; font-style: italic; text-align: center;&quot;&gt;Controlador&lt;/span&gt;&lt;div&gt;&lt;span style=&quot;font-family: Helvetica; font-style: italic; text-align: center;&quot;&gt;Usuario&lt;/span&gt;&lt;/div&gt;&lt;/div&gt;" style="shape=component;align=left;spacingLeft=36;rounded=0;shadow=0;comic=0;labelBackgroundColor=none;strokeWidth=1;fontFamily=Verdana;fontSize=12;html=1;" parent="1" vertex="1">
          <mxGeometry x="140" y="120" width="120" height="60" as="geometry" />
        </mxCell>
        <mxCell id="39150e848f15840c-11" style="edgeStyle=none;rounded=0;html=1;dashed=1;labelBackgroundColor=none;startArrow=none;startFill=0;startSize=8;endArrow=open;endFill=0;endSize=16;fontFamily=Verdana;fontSize=12;exitX=-0.006;exitY=0.668;exitDx=0;exitDy=0;exitPerimeter=0;" parent="1" source="39150e848f15840c-3" edge="1">
          <mxGeometry relative="1" as="geometry">
            <mxPoint x="484.4000000000001" y="460" as="sourcePoint" />
            <mxPoint x="374.6135273664099" y="248.8721680123267" as="targetPoint" />
          </mxGeometry>
        </mxCell>
        <mxCell id="39150e848f15840c-12" style="edgeStyle=none;rounded=0;html=1;dashed=1;labelBackgroundColor=none;startArrow=none;startFill=0;startSize=8;endArrow=open;endFill=0;endSize=16;fontFamily=Verdana;fontSize=12;" parent="1" source="39150e848f15840c-3" edge="1">
          <mxGeometry relative="1" as="geometry">
            <mxPoint x="625.3128419309332" y="248.83349020708738" as="targetPoint" />
          </mxGeometry>
        </mxCell>
        <mxCell id="39150e848f15840c-17" style="edgeStyle=orthogonalEdgeStyle;rounded=0;html=1;labelBackgroundColor=none;startArrow=none;startFill=0;startSize=8;endArrow=none;endFill=0;endSize=16;fontFamily=Verdana;fontSize=12;" parent="1" source="39150e848f15840c-3" target="39150e848f15840c-2" edge="1">
          <mxGeometry relative="1" as="geometry">
            <Array as="points">
              <mxPoint x="695" y="485" />
            </Array>
          </mxGeometry>
        </mxCell>
        <mxCell id="39150e848f15840c-18" style="edgeStyle=orthogonalEdgeStyle;rounded=0;html=1;labelBackgroundColor=none;startArrow=none;startFill=0;startSize=8;endArrow=none;endFill=0;endSize=16;fontFamily=Verdana;fontSize=12;" parent="1" source="39150e848f15840c-3" target="39150e848f15840c-1" edge="1">
          <mxGeometry relative="1" as="geometry">
            <Array as="points">
              <mxPoint x="285" y="485" />
            </Array>
          </mxGeometry>
        </mxCell>
        <mxCell id="pontVYZ_Nn7pAi0JFxh6-1" value="&lt;span style=&quot;font-family: Helvetica; font-style: italic; text-align: center;&quot;&gt;Interfaz&amp;nbsp;&lt;/span&gt;&lt;div&gt;&lt;span style=&quot;font-family: Helvetica; font-style: italic; text-align: center;&quot;&gt;Controlador&lt;/span&gt;&lt;div style=&quot;text-align: center;&quot;&gt;&lt;font face=&quot;Helvetica&quot;&gt;&lt;i&gt;Producto&lt;/i&gt;&lt;/font&gt;&lt;/div&gt;&lt;/div&gt;" style="shape=component;align=left;spacingLeft=36;rounded=0;shadow=0;comic=0;labelBackgroundColor=none;strokeWidth=1;fontFamily=Verdana;fontSize=12;html=1;" vertex="1" parent="1">
          <mxGeometry x="270" y="120" width="120" height="60" as="geometry" />
        </mxCell>
        <mxCell id="pontVYZ_Nn7pAi0JFxh6-2" value="&lt;span style=&quot;font-family: Helvetica; font-style: italic; text-align: center;&quot;&gt;Interfaz&amp;nbsp;&lt;/span&gt;&lt;div&gt;&lt;span style=&quot;font-family: Helvetica; font-style: italic; text-align: center;&quot;&gt;Controlador&lt;/span&gt;&lt;div style=&quot;text-align: center;&quot;&gt;&lt;font face=&quot;Helvetica&quot;&gt;&lt;i&gt;Categoria&lt;/i&gt;&lt;/font&gt;&lt;/div&gt;&lt;/div&gt;" style="shape=component;align=left;spacingLeft=36;rounded=0;shadow=0;comic=0;labelBackgroundColor=none;strokeWidth=1;fontFamily=Verdana;fontSize=12;html=1;" vertex="1" parent="1">
          <mxGeometry x="140" y="190" width="120" height="60" as="geometry" />
        </mxCell>
        <mxCell id="pontVYZ_Nn7pAi0JFxh6-3" value="&lt;span style=&quot;font-family: Helvetica; font-style: italic; text-align: center;&quot;&gt;Interfaz&amp;nbsp;&lt;/span&gt;&lt;div&gt;&lt;span style=&quot;font-family: Helvetica; font-style: italic; text-align: center;&quot;&gt;Controlador&lt;/span&gt;&lt;div style=&quot;text-align: center;&quot;&gt;&lt;font face=&quot;Helvetica&quot;&gt;&lt;i&gt;Inventario&lt;/i&gt;&lt;/font&gt;&lt;/div&gt;&lt;/div&gt;" style="shape=component;align=left;spacingLeft=36;rounded=0;shadow=0;comic=0;labelBackgroundColor=none;strokeWidth=1;fontFamily=Verdana;fontSize=12;html=1;" vertex="1" parent="1">
          <mxGeometry x="270" y="190" width="120" height="60" as="geometry" />
        </mxCell>
        <mxCell id="pontVYZ_Nn7pAi0JFxh6-4" value="&lt;div style=&quot;text-align: center;&quot;&gt;&lt;font face=&quot;Helvetica&quot;&gt;&lt;i&gt;Controlador&amp;nbsp;&lt;/i&gt;&lt;/font&gt;&lt;/div&gt;&lt;div style=&quot;text-align: center;&quot;&gt;&lt;font face=&quot;Helvetica&quot;&gt;&lt;i&gt;Usuario&lt;/i&gt;&lt;/font&gt;&lt;/div&gt;" style="shape=component;align=left;spacingLeft=36;rounded=0;shadow=0;comic=0;labelBackgroundColor=none;strokeWidth=1;fontFamily=Verdana;fontSize=12;html=1;" vertex="1" parent="1">
          <mxGeometry x="540" y="120" width="120" height="60" as="geometry" />
        </mxCell>
        <mxCell id="pontVYZ_Nn7pAi0JFxh6-5" value="&lt;div style=&quot;text-align: center;&quot;&gt;&lt;font face=&quot;Helvetica&quot;&gt;&lt;i&gt;Controlador&amp;nbsp;&lt;/i&gt;&lt;/font&gt;&lt;/div&gt;&lt;div style=&quot;text-align: center;&quot;&gt;&lt;font face=&quot;Helvetica&quot;&gt;&lt;i&gt;Producto&lt;/i&gt;&lt;/font&gt;&lt;/div&gt;" style="shape=component;align=left;spacingLeft=36;rounded=0;shadow=0;comic=0;labelBackgroundColor=none;strokeWidth=1;fontFamily=Verdana;fontSize=12;html=1;" vertex="1" parent="1">
          <mxGeometry x="680" y="120" width="120" height="60" as="geometry" />
        </mxCell>
        <mxCell id="pontVYZ_Nn7pAi0JFxh6-6" value="&lt;div style=&quot;text-align: center;&quot;&gt;&lt;font face=&quot;Helvetica&quot;&gt;&lt;i&gt;Controlador&amp;nbsp;&lt;/i&gt;&lt;/font&gt;&lt;/div&gt;&lt;div style=&quot;text-align: center;&quot;&gt;&lt;font face=&quot;Helvetica&quot;&gt;&lt;i&gt;Categoria&lt;/i&gt;&lt;/font&gt;&lt;/div&gt;" style="shape=component;align=left;spacingLeft=36;rounded=0;shadow=0;comic=0;labelBackgroundColor=none;strokeWidth=1;fontFamily=Verdana;fontSize=12;html=1;" vertex="1" parent="1">
          <mxGeometry x="550" y="190" width="120" height="60" as="geometry" />
        </mxCell>
        <mxCell id="pontVYZ_Nn7pAi0JFxh6-7" value="&lt;div style=&quot;text-align: center;&quot;&gt;&lt;font face=&quot;Helvetica&quot;&gt;&lt;i&gt;Controlador&amp;nbsp;&lt;/i&gt;&lt;/font&gt;&lt;/div&gt;&lt;div style=&quot;text-align: center;&quot;&gt;&lt;font face=&quot;Helvetica&quot;&gt;&lt;i&gt;Inventario&lt;/i&gt;&lt;/font&gt;&lt;/div&gt;" style="shape=component;align=left;spacingLeft=36;rounded=0;shadow=0;comic=0;labelBackgroundColor=none;strokeWidth=1;fontFamily=Verdana;fontSize=12;html=1;" vertex="1" parent="1">
          <mxGeometry x="680" y="190" width="120" height="60" as="geometry" />
        </mxCell>
        <mxCell id="pontVYZ_Nn7pAi0JFxh6-8" value="&lt;div style=&quot;text-align: center;&quot;&gt;&lt;span style=&quot;background-color: initial;&quot;&gt;&lt;font face=&quot;Helvetica&quot;&gt;&lt;i&gt;Usuario&lt;/i&gt;&lt;/font&gt;&lt;/span&gt;&lt;/div&gt;" style="shape=component;align=left;spacingLeft=36;rounded=0;shadow=0;comic=0;labelBackgroundColor=none;strokeWidth=1;fontFamily=Verdana;fontSize=12;html=1;" vertex="1" parent="1">
          <mxGeometry x="380" y="450" width="110" height="30" as="geometry" />
        </mxCell>
        <mxCell id="pontVYZ_Nn7pAi0JFxh6-9" value="&lt;div style=&quot;text-align: center;&quot;&gt;&lt;font face=&quot;Helvetica&quot;&gt;&lt;i&gt;Proveedor&lt;/i&gt;&lt;/font&gt;&lt;/div&gt;" style="shape=component;align=left;spacingLeft=36;rounded=0;shadow=0;comic=0;labelBackgroundColor=none;strokeWidth=1;fontFamily=Verdana;fontSize=12;html=1;" vertex="1" parent="1">
          <mxGeometry x="495" y="450" width="110" height="30" as="geometry" />
        </mxCell>
        <mxCell id="pontVYZ_Nn7pAi0JFxh6-10" value="&lt;div style=&quot;text-align: center;&quot;&gt;&lt;font face=&quot;Helvetica&quot;&gt;&lt;i&gt;Producto&lt;/i&gt;&lt;/font&gt;&lt;/div&gt;" style="shape=component;align=left;spacingLeft=36;rounded=0;shadow=0;comic=0;labelBackgroundColor=none;strokeWidth=1;fontFamily=Verdana;fontSize=12;html=1;" vertex="1" parent="1">
          <mxGeometry x="380" y="490" width="110" height="30" as="geometry" />
        </mxCell>
        <mxCell id="pontVYZ_Nn7pAi0JFxh6-11" value="&lt;div style=&quot;text-align: center;&quot;&gt;&lt;font face=&quot;Helvetica&quot;&gt;&lt;i&gt;Categoria&lt;/i&gt;&lt;/font&gt;&lt;/div&gt;" style="shape=component;align=left;spacingLeft=36;rounded=0;shadow=0;comic=0;labelBackgroundColor=none;strokeWidth=1;fontFamily=Verdana;fontSize=12;html=1;" vertex="1" parent="1">
          <mxGeometry x="495" y="490" width="110" height="30" as="geometry" />
        </mxCell>
        <mxCell id="pontVYZ_Nn7pAi0JFxh6-12" value="&lt;div style=&quot;text-align: center;&quot;&gt;&lt;font face=&quot;Helvetica&quot;&gt;&lt;i&gt;Inventario&lt;/i&gt;&lt;/font&gt;&lt;/div&gt;" style="shape=component;align=left;spacingLeft=36;rounded=0;shadow=0;comic=0;labelBackgroundColor=none;strokeWidth=1;fontFamily=Verdana;fontSize=12;html=1;" vertex="1" parent="1">
          <mxGeometry x="380" y="530" width="110" height="30" as="geometry" />
        </mxCell>
        <mxCell id="pontVYZ_Nn7pAi0JFxh6-13" value="&lt;div style=&quot;text-align: center;&quot;&gt;&lt;font face=&quot;Helvetica&quot;&gt;&lt;i&gt;Historial&lt;/i&gt;&lt;/font&gt;&lt;/div&gt;" style="shape=component;align=left;spacingLeft=36;rounded=0;shadow=0;comic=0;labelBackgroundColor=none;strokeWidth=1;fontFamily=Verdana;fontSize=12;html=1;" vertex="1" parent="1">
          <mxGeometry x="495" y="530" width="110" height="30" as="geometry" />
        </mxCell>
        <mxCell id="pontVYZ_Nn7pAi0JFxh6-15" style="edgeStyle=none;rounded=0;html=1;dashed=1;labelBackgroundColor=none;startArrow=none;startFill=0;startSize=8;endArrow=open;endFill=0;endSize=16;fontFamily=Verdana;fontSize=12;entryX=0;entryY=0;entryDx=105;entryDy=0;entryPerimeter=0;exitX=0;exitY=0;exitDx=115;exitDy=330;exitPerimeter=0;" edge="1" parent="1" source="39150e848f15840c-2" target="39150e848f15840c-1">
          <mxGeometry relative="1" as="geometry">
            <mxPoint x="406.69" y="371.17" as="sourcePoint" />
            <mxPoint x="490.00284193093324" y="210.0034902070874" as="targetPoint" />
          </mxGeometry>
        </mxCell>
      </root>
    </mxGraphModel>
  </diagram>
</mxfile>
